<svg width="48" height="48" viewBox="0 0 48 48" fill="none" xmlns="http://www.w3.org/2000/svg">
    <circle cx="24" cy="24" r="24" fill="#207245"/>
    <g clip-path="url(#clip0_647_1076)">
        <path d="M24.6441 10H26.5334C26.5334 10.8693 26.5334 11.7353 26.5334 12.6047C29.7174 12.6047 32.9013 12.6112 36.0852 12.5949C36.6227 12.6177 37.2143 12.5786 37.6819 12.9074C38.0095 13.3893 37.9714 14.0014 37.9936 14.5549C37.9777 20.207 37.9841 25.8558 37.9873 31.5047C37.9714 32.4521 38.0731 33.4191 37.8791 34.3535C37.7519 35.0307 36.9567 35.047 36.4255 35.0698C33.1303 35.0795 29.8319 35.0633 26.5334 35.0698C26.5334 36.0465 26.5334 37.0233 26.5334 38H24.5582C19.7108 37.0981 14.8538 36.2647 10 35.3953C10 27.7995 10 20.2037 10 12.6079C14.8824 11.7386 19.7648 10.8823 24.6441 10Z" fill="white"/>
        <path d="M26.5332 13.5815C30.032 13.5815 33.5308 13.5815 37.0296 13.5815C37.0296 20.4188 37.0296 27.256 37.0296 34.0932C33.5308 34.0932 30.032 34.0932 26.5332 34.0932C26.5332 33.442 26.5332 32.7908 26.5332 32.1397C27.3825 32.1397 28.2285 32.1397 29.0778 32.1397C29.0778 31.3811 29.0778 30.6192 29.0778 29.8606C28.2285 29.8606 27.3825 29.8606 26.5332 29.8606C26.5332 29.4276 26.5332 28.9913 26.5332 28.5583C27.3825 28.5583 28.2285 28.5583 29.0778 28.5583C29.0778 27.7997 29.0778 27.0378 29.0778 26.2792C28.2285 26.2792 27.3825 26.2792 26.5332 26.2792C26.5332 25.8462 26.5332 25.4099 26.5332 24.9769C27.3825 24.9769 28.2285 24.9769 29.0778 24.9769C29.0778 24.2183 29.0778 23.4564 29.0778 22.6978C28.2285 22.6978 27.3825 22.6978 26.5332 22.6978C26.5332 22.2648 26.5332 21.8285 26.5332 21.3955C27.3825 21.3955 28.2285 21.3955 29.0778 21.3955C29.0778 20.6369 29.0778 19.875 29.0778 19.1164C28.2285 19.1164 27.3825 19.1164 26.5332 19.1164C26.5332 18.6834 26.5332 18.2471 26.5332 17.8141C27.3825 17.8141 28.2285 17.8141 29.0778 17.8141C29.0778 17.0555 29.0778 16.2936 29.0778 15.535C28.2285 15.535 27.3825 15.535 26.5332 15.535C26.5332 14.8839 26.5332 14.2327 26.5332 13.5815Z" fill="#207245"/>
        <path d="M30.3501 15.5347C31.8355 15.5347 33.3177 15.5347 34.8031 15.5347C34.8031 16.2933 34.8031 17.0551 34.8031 17.8137C33.3177 17.8137 31.8355 17.8137 30.3501 17.8137C30.3501 17.0551 30.3501 16.2933 30.3501 15.5347Z" fill="white"/>
        <path d="M19.4214 18.5856C20.1402 18.5335 20.8622 18.488 21.5843 18.4521C20.735 20.2331 19.8826 22.014 19.0174 23.7884C19.8921 25.6117 20.7859 27.4219 21.6638 29.2452C20.8972 29.1996 20.1338 29.1508 19.3673 29.0954C18.8266 27.7377 18.1682 26.4256 17.7801 25.0061C17.3475 26.328 16.7305 27.5749 16.2343 28.8708C15.5377 28.861 14.8411 28.8317 14.1445 28.8024C14.962 27.1647 15.7508 25.514 16.5937 23.8861C15.878 22.2094 15.0924 20.5652 14.3545 18.8982C15.0542 18.8559 15.754 18.8135 16.4537 18.7745C16.9277 20.0475 17.4461 21.3042 17.8374 22.6098C18.2572 21.2261 18.8838 19.9238 19.4214 18.5856Z" fill="#207245"/>
        <path d="M30.3501 19.1162C31.8355 19.1162 33.3177 19.1162 34.8031 19.1162C34.8031 19.8748 34.8031 20.6367 34.8031 21.3953C33.3177 21.3953 31.8355 21.3953 30.3501 21.3953C30.3501 20.6367 30.3501 19.8748 30.3501 19.1162Z" fill="white"/>
        <path d="M30.3501 22.6978C31.8355 22.6978 33.3177 22.6978 34.8031 22.6978C34.8031 23.4564 34.8031 24.2182 34.8031 24.9768C33.3177 24.9768 31.8355 24.9768 30.3501 24.9768C30.3501 24.2182 30.3501 23.4564 30.3501 22.6978Z" fill="white"/>
        <path d="M30.3501 26.2793C31.8355 26.2793 33.3177 26.2793 34.8031 26.2793C34.8031 27.0379 34.8031 27.7998 34.8031 28.5584C33.3177 28.5584 31.8355 28.5584 30.3501 28.5584C30.3501 27.7998 30.3501 27.0379 30.3501 26.2793Z" fill="white"/>
        <path d="M30.3501 29.8604C31.8355 29.8604 33.3177 29.8604 34.8031 29.8604C34.8031 30.619 34.8031 31.3808 34.8031 32.1394C33.3177 32.1394 31.8355 32.1394 30.3501 32.1394C30.3501 31.3808 30.3501 30.619 30.3501 29.8604Z" fill="white"/>
    </g>
    <defs>
        <clipPath id="clip0_647_1076">
            <rect width="28" height="28" fill="white" transform="translate(10 10)"/>
        </clipPath>
    </defs>
</svg>
