<svg width="70" height="66" viewBox="0 0 70 66" fill="none" xmlns="http://www.w3.org/2000/svg">
    <g clip-path="url(#clip0_137_719)">
        <path d="M46.7873 57.6479C46.7996 62.2141 43.0098 65.9203 38.3322 65.9203H23.8638C21.9883 65.9203 20.1955 65.1657 18.9077 63.8347L3.20772 47.6055C2.65772 46.9953 2.23323 46.4567 1.93425 46.0575C0.0250679 43.5042 -0.000442091 42.2986 0.0383334 41.78C0.0403742 41.7461 0.0434355 41.7193 0.0454763 41.7013C0.0454763 41.6994 0.0505783 41.6765 0.0515987 41.6745C0.229149 40.8423 0.528129 39.4914 0.595476 39.1181C0.624047 38.9728 0.75466 38.8682 0.90568 38.8682H29.4281C30.6547 38.8682 31.8281 39.361 32.67 40.232L44.7383 52.7063C46.0322 54.0442 46.7822 55.8072 46.7873 57.6469V57.6479Z" fill="url(#paint0_linear_137_719)"/>
        <path d="M64.9316 0H16.7459C16.6041 0 16.4632 0.00298643 16.3224 0.00895928C16.3092 0.00895928 16.2969 0.0109502 16.2837 0.0109502C16.1561 0.0169231 16.0286 0.0248869 15.902 0.0358371C15.8816 0.0378281 15.8612 0.0408145 15.8408 0.04181C15.7224 0.0527602 15.6041 0.0647059 15.4867 0.079638C15.4632 0.0826244 15.4408 0.0866063 15.4184 0.0895928C15.3041 0.10552 15.1898 0.121448 15.0755 0.141357C15.052 0.145339 15.0296 0.150317 15.0061 0.154299C14.8939 0.174208 14.7816 0.195113 14.6704 0.219005C14.6459 0.223982 14.6224 0.229955 14.599 0.235928C14.4888 0.260814 14.3796 0.285701 14.2704 0.313575C14.2469 0.319548 14.2235 0.326516 14.199 0.333484C14.0908 0.362353 13.9837 0.392217 13.8765 0.425068C13.852 0.432036 13.8286 0.440995 13.8051 0.447964C13.699 0.480814 13.5939 0.514661 13.4898 0.551493C13.4653 0.559457 13.4418 0.569412 13.4184 0.578371C13.3153 0.615204 13.2122 0.654027 13.1112 0.693846C13.0867 0.703801 13.0632 0.713756 13.0388 0.72371C12.9388 0.764525 12.8388 0.806335 12.7398 0.850136C12.7153 0.861086 12.6908 0.873032 12.6663 0.883982C12.5694 0.928778 12.4724 0.973575 12.3765 1.02136C12.351 1.0343 12.3265 1.04724 12.302 1.06018C12.2081 1.10796 12.1143 1.15674 12.0224 1.20751C11.9969 1.22145 11.9714 1.23638 11.9459 1.25131C11.8551 1.30208 11.7653 1.35385 11.6765 1.4076C11.65 1.42353 11.6245 1.44045 11.5979 1.45638C11.5112 1.51014 11.4255 1.56389 11.3408 1.62063C11.3132 1.63855 11.2867 1.65747 11.2602 1.67538C11.1775 1.73113 11.0959 1.78787 11.0143 1.84661C10.9867 1.86652 10.9592 1.88742 10.9306 1.90833C10.852 1.96606 10.7745 2.0248 10.6979 2.08552C10.6694 2.10842 10.6408 2.13131 10.6122 2.15421C10.5377 2.21394 10.4643 2.27466 10.3928 2.33638C10.3632 2.36226 10.3337 2.38814 10.3051 2.41403C10.2357 2.47475 10.1663 2.53647 10.099 2.60018C10.0683 2.62905 10.0387 2.65792 10.0081 2.68579C9.94283 2.74751 9.87855 2.81023 9.81528 2.87394C9.78467 2.90579 9.75406 2.93765 9.72344 2.9695C9.66324 3.03222 9.60303 3.09593 9.54487 3.15964C9.51324 3.19448 9.48263 3.22932 9.45099 3.26516C9.39487 3.32787 9.33977 3.39158 9.28671 3.45629C9.25508 3.49412 9.22344 3.53294 9.19181 3.57176C9.14079 3.63448 9.08977 3.69819 9.04079 3.7629C9.00814 3.80471 8.97752 3.84751 8.94589 3.88932C8.89895 3.95204 8.85303 4.01575 8.80814 4.07946C8.7765 4.12525 8.74487 4.17104 8.71324 4.21783C8.6714 4.28054 8.62957 4.34326 8.58875 4.40597C8.55712 4.45575 8.52548 4.50552 8.49487 4.55629C8.45712 4.61801 8.41936 4.67973 8.38263 4.74244C8.351 4.7962 8.32038 4.84995 8.29079 4.90371C8.25712 4.96443 8.22344 5.02516 8.19079 5.08688C8.16018 5.14461 8.13059 5.20235 8.10099 5.26109C8.0714 5.32081 8.04181 5.38054 8.01324 5.44127C7.98365 5.50299 7.95508 5.56471 7.92753 5.62643C7.90099 5.68516 7.87548 5.74389 7.851 5.80362C7.82344 5.86932 7.79589 5.93502 7.77038 6.00072C7.74793 6.05846 7.72548 6.1162 7.70406 6.17394C7.67855 6.24362 7.65304 6.31231 7.62855 6.38299C7.60916 6.43973 7.59079 6.49647 7.5714 6.55321C7.54793 6.62588 7.52446 6.69955 7.50304 6.77222C7.48671 6.82796 7.4714 6.88371 7.45508 6.93946C7.43365 7.01611 7.41324 7.09176 7.39385 7.16941C7.38875 7.19032 7.38263 7.21122 7.37753 7.23213C7.35712 7.31276 7.33875 7.39439 7.3214 7.47602C7.3214 7.47801 7.3214 7.48 7.32038 7.48199L7.30916 7.53276L6.76324 10.0991C6.76324 10.0991 6.76528 10.1071 6.7663 10.111C7.16936 8.62679 8.55406 7.53276 10.202 7.53276H17.0949H58.8857C60.849 7.53276 62.4408 9.0857 62.4408 11.001C62.4408 12.9163 60.849 14.4692 58.8857 14.4692H11.903C8.36834 14.4692 5.31936 16.8902 4.60202 20.2669L0.601 39.0903C0.601 39.0903 0.601 39.0933 0.601 39.0943L0.0458984 41.7034C0.0458984 41.7034 0.0458984 41.7084 0.0469188 41.7114C0.0469188 41.7124 0.0479393 41.7144 0.0489597 41.7154C0.452021 40.2311 1.83671 39.1371 3.48467 39.1371H10.3775V39.1351H52.9347C58.7255 39.1351 63.7214 35.1681 64.8969 29.6363L69.8 6.57113C69.9224 5.99475 69.9806 5.40742 69.9724 4.82009C69.9387 2.14226 67.6755 0 64.9306 0H64.9316Z" fill="#142893"/>
    </g>
    <defs>
        <linearGradient id="paint0_linear_137_719" x1="28.4879" y1="65.1951" x2="23.5369" y2="37.499" gradientUnits="userSpaceOnUse">
            <stop stop-color="#142893"/>
            <stop offset="1" stop-color="#001272"/>
        </linearGradient>
        <clipPath id="clip0_137_719">
            <rect width="70" height="66" fill="white"/>
        </clipPath>
    </defs>
</svg>
