<svg width="32" height="32" viewBox="0 0 32 32" fill="none" xmlns="http://www.w3.org/2000/svg">
    <rect width="32" height="32" rx="16" fill="#FD8C00"/>
    <path d="M23.2157 20.1637C23.5833 20.3052 23.7248 20.8559 23.7529 21.0962C23.8095 21.5345 23.6826 21.7041 23.5412 21.7041C23.3997 21.7041 23.2017 21.5345 22.99 21.1954C22.7778 20.8559 22.693 20.4747 22.8064 20.2766C22.8766 20.1492 23.0317 20.093 23.2157 20.1637ZM21.0679 21.7607C21.2941 21.7607 21.5484 21.8595 21.7746 22.0572C22.2125 22.4248 22.3399 22.8486 22.1137 23.1596C21.9863 23.3151 21.7746 23.4139 21.5344 23.4139C21.2941 23.4139 21.0398 23.3291 20.8703 23.1737C20.4746 22.8346 20.3617 22.2689 20.6156 21.9584C20.7148 21.831 20.8703 21.7607 21.0679 21.7607ZM16.1224 25.8445C10.7521 25.8445 6.3999 21.4919 6.3999 16.1221C6.3999 10.7522 10.7525 6.40002 16.1219 6.40002C21.4918 6.40002 25.8444 10.7527 25.8444 16.1221C25.8444 17.9448 25.3358 19.6551 24.4741 21.1107C24.4455 21.1528 24.3748 21.1388 24.3607 21.0821C24.0217 18.6941 22.5661 17.3795 20.4465 16.9842C20.2624 16.9557 20.2343 16.8428 20.4746 16.8147C21.1246 16.758 22.043 16.7721 22.5235 16.8569C22.5516 16.6166 22.5661 16.3623 22.5661 16.108C22.5661 12.5609 19.6831 9.67789 16.136 9.67789C12.5893 9.67789 9.70632 12.5609 9.70632 16.108C9.70632 19.6551 12.5893 22.5381 16.1364 22.5381H16.4329C16.3322 21.9644 16.2895 21.382 16.3055 20.7997C16.32 20.404 16.4048 20.3473 16.5743 20.6583C17.4646 22.1986 18.7366 23.5835 21.2234 24.1347C23.2583 24.5871 25.2932 25.1097 27.4836 27.8935C27.6812 28.1337 27.3847 28.388 27.1585 28.1904C24.926 26.2117 22.8911 25.5617 21.0398 25.5617C18.9623 25.5762 17.5498 25.8445 16.1224 25.8445Z" fill="white"/>
</svg>
