<svg width="206" height="206" viewBox="0 0 206 206" fill="none" xmlns="http://www.w3.org/2000/svg">
    <path d="M7.10345 0H0V7.10345H7.10345V0Z" fill="black"/>
    <path d="M14.2069 0H7.10345V7.10345H14.2069V0Z" fill="black"/>
    <path d="M21.3103 0H14.2069V7.10345H21.3103V0Z" fill="black"/>
    <path d="M28.4138 0H21.3103V7.10345H28.4138V0Z" fill="black"/>
    <path d="M35.5172 0H28.4138V7.10345H35.5172V0Z" fill="black"/>
    <path d="M42.6207 0H35.5172V7.10345H42.6207V0Z" fill="black"/>
    <path d="M49.7241 0H42.6207V7.10345H49.7241V0Z" fill="black"/>
    <path d="M63.931 0H56.8276V7.10345H63.931V0Z" fill="black"/>
    <path d="M78.1379 0H71.0345V7.10345H78.1379V0Z" fill="black"/>
    <path d="M85.2414 0H78.1379V7.10345H85.2414V0Z" fill="black"/>
    <path d="M106.552 0H99.4483V7.10345H106.552V0Z" fill="black"/>
    <path d="M113.655 0H106.552V7.10345H113.655V0Z" fill="black"/>
    <path d="M127.862 0H120.759V7.10345H127.862V0Z" fill="black"/>
    <path d="M134.966 0H127.862V7.10345H134.966V0Z" fill="black"/>
    <path d="M142.069 0H134.966V7.10345H142.069V0Z" fill="black"/>
    <path d="M149.172 0H142.069V7.10345H149.172V0Z" fill="black"/>
    <path d="M163.379 0H156.276V7.10345H163.379V0Z" fill="black"/>
    <path d="M170.483 0H163.379V7.10345H170.483V0Z" fill="black"/>
    <path d="M177.586 0H170.483V7.10345H177.586V0Z" fill="black"/>
    <path d="M184.69 0H177.586V7.10345H184.69V0Z" fill="black"/>
    <path d="M191.793 0H184.69V7.10345H191.793V0Z" fill="black"/>
    <path d="M198.897 0H191.793V7.10345H198.897V0Z" fill="black"/>
    <path d="M206 0H198.897V7.10345H206V0Z" fill="black"/>
    <path d="M7.10345 7.10345H0V14.2069H7.10345V7.10345Z" fill="black"/>
    <path d="M49.7241 7.10345H42.6207V14.2069H49.7241V7.10345Z" fill="black"/>
    <path d="M71.0345 7.10345H63.931V14.2069H71.0345V7.10345Z" fill="black"/>
    <path d="M85.2414 7.10345H78.1379V14.2069H85.2414V7.10345Z" fill="black"/>
    <path d="M163.379 7.10345H156.276V14.2069H163.379V7.10345Z" fill="black"/>
    <path d="M206 7.10345H198.897V14.2069H206V7.10345Z" fill="black"/>
    <path d="M7.10345 14.2069H0V21.3103H7.10345V14.2069Z" fill="black"/>
    <path d="M21.3103 14.2069H14.2069V21.3103H21.3103V14.2069Z" fill="black"/>
    <path d="M28.4138 14.2069H21.3103V21.3103H28.4138V14.2069Z" fill="black"/>
    <path d="M35.5172 14.2069H28.4138V21.3103H35.5172V14.2069Z" fill="black"/>
    <path d="M49.7241 14.2069H42.6207V21.3103H49.7241V14.2069Z" fill="black"/>
    <path d="M63.931 14.2069H56.8276V21.3103H63.931V14.2069Z" fill="black"/>
    <path d="M71.0345 14.2069H63.931V21.3103H71.0345V14.2069Z" fill="black"/>
    <path d="M78.1379 14.2069H71.0345V21.3103H78.1379V14.2069Z" fill="black"/>
    <path d="M85.2414 14.2069H78.1379V21.3103H85.2414V14.2069Z" fill="black"/>
    <path d="M92.3448 14.2069H85.2414V21.3103H92.3448V14.2069Z" fill="black"/>
    <path d="M99.4483 14.2069H92.3448V21.3103H99.4483V14.2069Z" fill="black"/>
    <path d="M113.655 14.2069H106.552V21.3103H113.655V14.2069Z" fill="black"/>
    <path d="M120.759 14.2069H113.655V21.3103H120.759V14.2069Z" fill="black"/>
    <path d="M142.069 14.2069H134.966V21.3103H142.069V14.2069Z" fill="black"/>
    <path d="M163.379 14.2069H156.276V21.3103H163.379V14.2069Z" fill="black"/>
    <path d="M177.586 14.2069H170.483V21.3103H177.586V14.2069Z" fill="black"/>
    <path d="M184.69 14.2069H177.586V21.3103H184.69V14.2069Z" fill="black"/>
    <path d="M191.793 14.2069H184.69V21.3103H191.793V14.2069Z" fill="black"/>
    <path d="M206 14.2069H198.897V21.3103H206V14.2069Z" fill="black"/>
    <path d="M7.10345 21.3103H0V28.4138H7.10345V21.3103Z" fill="black"/>
    <path d="M21.3103 21.3103H14.2069V28.4138H21.3103V21.3103Z" fill="black"/>
    <path d="M28.4138 21.3103H21.3103V28.4138H28.4138V21.3103Z" fill="black"/>
    <path d="M35.5172 21.3103H28.4138V28.4138H35.5172V21.3103Z" fill="black"/>
    <path d="M49.7241 21.3103H42.6207V28.4138H49.7241V21.3103Z" fill="black"/>
    <path d="M63.931 21.3103H56.8276V28.4138H63.931V21.3103Z" fill="black"/>
    <path d="M71.0345 21.3103H63.931V28.4138H71.0345V21.3103Z" fill="black"/>
    <path d="M78.1379 21.3103H71.0345V28.4138H78.1379V21.3103Z" fill="black"/>
    <path d="M85.2414 21.3103H78.1379V28.4138H85.2414V21.3103Z" fill="black"/>
    <path d="M92.3448 21.3103H85.2414V28.4138H92.3448V21.3103Z" fill="black"/>
    <path d="M99.4483 21.3103H92.3448V28.4138H99.4483V21.3103Z" fill="black"/>
    <path d="M106.552 21.3103H99.4483V28.4138H106.552V21.3103Z" fill="black"/>
    <path d="M120.759 21.3103H113.655V28.4138H120.759V21.3103Z" fill="black"/>
    <path d="M134.966 21.3103H127.862V28.4138H134.966V21.3103Z" fill="black"/>
    <path d="M149.172 21.3103H142.069V28.4138H149.172V21.3103Z" fill="black"/>
    <path d="M163.379 21.3103H156.276V28.4138H163.379V21.3103Z" fill="black"/>
    <path d="M177.586 21.3103H170.483V28.4138H177.586V21.3103Z" fill="black"/>
    <path d="M184.69 21.3103H177.586V28.4138H184.69V21.3103Z" fill="black"/>
    <path d="M191.793 21.3103H184.69V28.4138H191.793V21.3103Z" fill="black"/>
    <path d="M206 21.3103H198.897V28.4138H206V21.3103Z" fill="black"/>
    <path d="M7.10345 28.4138H0V35.5172H7.10345V28.4138Z" fill="black"/>
    <path d="M21.3103 28.4138H14.2069V35.5172H21.3103V28.4138Z" fill="black"/>
    <path d="M28.4138 28.4138H21.3103V35.5172H28.4138V28.4138Z" fill="black"/>
    <path d="M35.5172 28.4138H28.4138V35.5172H35.5172V28.4138Z" fill="black"/>
    <path d="M49.7241 28.4138H42.6207V35.5172H49.7241V28.4138Z" fill="black"/>
    <path d="M63.931 28.4138H56.8276V35.5172H63.931V28.4138Z" fill="black"/>
    <path d="M85.2414 28.4138H78.1379V35.5172H85.2414V28.4138Z" fill="black"/>
    <path d="M99.4483 28.4138H92.3448V35.5172H99.4483V28.4138Z" fill="black"/>
    <path d="M120.759 28.4138H113.655V35.5172H120.759V28.4138Z" fill="black"/>
    <path d="M127.862 28.4138H120.759V35.5172H127.862V28.4138Z" fill="black"/>
    <path d="M149.172 28.4138H142.069V35.5172H149.172V28.4138Z" fill="black"/>
    <path d="M163.379 28.4138H156.276V35.5172H163.379V28.4138Z" fill="black"/>
    <path d="M177.586 28.4138H170.483V35.5172H177.586V28.4138Z" fill="black"/>
    <path d="M184.69 28.4138H177.586V35.5172H184.69V28.4138Z" fill="black"/>
    <path d="M191.793 28.4138H184.69V35.5172H191.793V28.4138Z" fill="black"/>
    <path d="M206 28.4138H198.897V35.5172H206V28.4138Z" fill="black"/>
    <path d="M7.10345 35.5172H0V42.6207H7.10345V35.5172Z" fill="black"/>
    <path d="M49.7241 35.5172H42.6207V42.6207H49.7241V35.5172Z" fill="black"/>
    <path d="M63.931 35.5172H56.8276V42.6207H63.931V35.5172Z" fill="black"/>
    <path d="M85.2414 35.5172H78.1379V42.6207H85.2414V35.5172Z" fill="black"/>
    <path d="M99.4483 35.5172H92.3448V42.6207H99.4483V35.5172Z" fill="black"/>
    <path d="M113.655 35.5172H106.552V42.6207H113.655V35.5172Z" fill="black"/>
    <path d="M120.759 35.5172H113.655V42.6207H120.759V35.5172Z" fill="black"/>
    <path d="M127.862 35.5172H120.759V42.6207H127.862V35.5172Z" fill="black"/>
    <path d="M134.966 35.5172H127.862V42.6207H134.966V35.5172Z" fill="black"/>
    <path d="M149.172 35.5172H142.069V42.6207H149.172V35.5172Z" fill="black"/>
    <path d="M163.379 35.5172H156.276V42.6207H163.379V35.5172Z" fill="black"/>
    <path d="M206 35.5172H198.897V42.6207H206V35.5172Z" fill="black"/>
    <path d="M7.10345 42.6207H0V49.7241H7.10345V42.6207Z" fill="black"/>
    <path d="M14.2069 42.6207H7.10345V49.7241H14.2069V42.6207Z" fill="black"/>
    <path d="M21.3103 42.6207H14.2069V49.7241H21.3103V42.6207Z" fill="black"/>
    <path d="M28.4138 42.6207H21.3103V49.7241H28.4138V42.6207Z" fill="black"/>
    <path d="M35.5172 42.6207H28.4138V49.7241H35.5172V42.6207Z" fill="black"/>
    <path d="M42.6207 42.6207H35.5172V49.7241H42.6207V42.6207Z" fill="black"/>
    <path d="M49.7241 42.6207H42.6207V49.7241H49.7241V42.6207Z" fill="black"/>
    <path d="M63.931 42.6207H56.8276V49.7241H63.931V42.6207Z" fill="black"/>
    <path d="M78.1379 42.6207H71.0345V49.7241H78.1379V42.6207Z" fill="black"/>
    <path d="M92.3448 42.6207H85.2414V49.7241H92.3448V42.6207Z" fill="black"/>
    <path d="M106.552 42.6207H99.4483V49.7241H106.552V42.6207Z" fill="black"/>
    <path d="M120.759 42.6207H113.655V49.7241H120.759V42.6207Z" fill="black"/>
    <path d="M134.966 42.6207H127.862V49.7241H134.966V42.6207Z" fill="black"/>
    <path d="M149.172 42.6207H142.069V49.7241H149.172V42.6207Z" fill="black"/>
    <path d="M163.379 42.6207H156.276V49.7241H163.379V42.6207Z" fill="black"/>
    <path d="M170.483 42.6207H163.379V49.7241H170.483V42.6207Z" fill="black"/>
    <path d="M177.586 42.6207H170.483V49.7241H177.586V42.6207Z" fill="black"/>
    <path d="M184.69 42.6207H177.586V49.7241H184.69V42.6207Z" fill="black"/>
    <path d="M191.793 42.6207H184.69V49.7241H191.793V42.6207Z" fill="black"/>
    <path d="M198.897 42.6207H191.793V49.7241H198.897V42.6207Z" fill="black"/>
    <path d="M206 42.6207H198.897V49.7241H206V42.6207Z" fill="black"/>
    <path d="M78.1379 49.7241H71.0345V56.8276H78.1379V49.7241Z" fill="black"/>
    <path d="M85.2414 49.7241H78.1379V56.8276H85.2414V49.7241Z" fill="black"/>
    <path d="M92.3448 49.7241H85.2414V56.8276H92.3448V49.7241Z" fill="black"/>
    <path d="M99.4483 49.7241H92.3448V56.8276H99.4483V49.7241Z" fill="black"/>
    <path d="M106.552 49.7241H99.4483V56.8276H106.552V49.7241Z" fill="black"/>
    <path d="M120.759 49.7241H113.655V56.8276H120.759V49.7241Z" fill="black"/>
    <path d="M134.966 49.7241H127.862V56.8276H134.966V49.7241Z" fill="black"/>
    <path d="M149.172 49.7241H142.069V56.8276H149.172V49.7241Z" fill="black"/>
    <path d="M21.3103 56.8276H14.2069V63.931H21.3103V56.8276Z" fill="black"/>
    <path d="M28.4138 56.8276H21.3103V63.931H28.4138V56.8276Z" fill="black"/>
    <path d="M35.5172 56.8276H28.4138V63.931H35.5172V56.8276Z" fill="black"/>
    <path d="M42.6207 56.8276H35.5172V63.931H42.6207V56.8276Z" fill="black"/>
    <path d="M49.7241 56.8276H42.6207V63.931H49.7241V56.8276Z" fill="black"/>
    <path d="M56.8276 56.8276H49.7241V63.931H56.8276V56.8276Z" fill="black"/>
    <path d="M71.0345 56.8276H63.931V63.931H71.0345V56.8276Z" fill="black"/>
    <path d="M85.2414 56.8276H78.1379V63.931H85.2414V56.8276Z" fill="black"/>
    <path d="M99.4483 56.8276H92.3448V63.931H99.4483V56.8276Z" fill="black"/>
    <path d="M113.655 56.8276H106.552V63.931H113.655V56.8276Z" fill="black"/>
    <path d="M127.862 56.8276H120.759V63.931H127.862V56.8276Z" fill="black"/>
    <path d="M134.966 56.8276H127.862V63.931H134.966V56.8276Z" fill="black"/>
    <path d="M156.276 56.8276H149.172V63.931H156.276V56.8276Z" fill="black"/>
    <path d="M170.483 56.8276H163.379V63.931H170.483V56.8276Z" fill="black"/>
    <path d="M177.586 56.8276H170.483V63.931H177.586V56.8276Z" fill="black"/>
    <path d="M184.69 56.8276H177.586V63.931H184.69V56.8276Z" fill="black"/>
    <path d="M191.793 56.8276H184.69V63.931H191.793V56.8276Z" fill="black"/>
    <path d="M206 56.8276H198.897V63.931H206V56.8276Z" fill="black"/>
    <path d="M7.10345 63.931H0V71.0345H7.10345V63.931Z" fill="black"/>
    <path d="M21.3103 63.931H14.2069V71.0345H21.3103V63.931Z" fill="black"/>
    <path d="M28.4138 63.931H21.3103V71.0345H28.4138V63.931Z" fill="black"/>
    <path d="M42.6207 63.931H35.5172V71.0345H42.6207V63.931Z" fill="black"/>
    <path d="M56.8276 63.931H49.7241V71.0345H56.8276V63.931Z" fill="black"/>
    <path d="M106.552 63.931H99.4483V71.0345H106.552V63.931Z" fill="black"/>
    <path d="M113.655 63.931H106.552V71.0345H113.655V63.931Z" fill="black"/>
    <path d="M127.862 63.931H120.759V71.0345H127.862V63.931Z" fill="black"/>
    <path d="M149.172 63.931H142.069V71.0345H149.172V63.931Z" fill="black"/>
    <path d="M163.379 63.931H156.276V71.0345H163.379V63.931Z" fill="black"/>
    <path d="M184.69 63.931H177.586V71.0345H184.69V63.931Z" fill="black"/>
    <path d="M191.793 63.931H184.69V71.0345H191.793V63.931Z" fill="black"/>
    <path d="M206 63.931H198.897V71.0345H206V63.931Z" fill="black"/>
    <path d="M7.10345 71.0345H0V78.1379H7.10345V71.0345Z" fill="black"/>
    <path d="M14.2069 71.0345H7.10345V78.1379H14.2069V71.0345Z" fill="black"/>
    <path d="M28.4138 71.0345H21.3103V78.1379H28.4138V71.0345Z" fill="black"/>
    <path d="M35.5172 71.0345H28.4138V78.1379H35.5172V71.0345Z" fill="black"/>
    <path d="M42.6207 71.0345H35.5172V78.1379H42.6207V71.0345Z" fill="black"/>
    <path d="M49.7241 71.0345H42.6207V78.1379H49.7241V71.0345Z" fill="black"/>
    <path d="M78.1379 71.0345H71.0345V78.1379H78.1379V71.0345Z" fill="black"/>
    <path d="M99.4483 71.0345H92.3448V78.1379H99.4483V71.0345Z" fill="black"/>
    <path d="M120.759 71.0345H113.655V78.1379H120.759V71.0345Z" fill="black"/>
    <path d="M127.862 71.0345H120.759V78.1379H127.862V71.0345Z" fill="black"/>
    <path d="M142.069 71.0345H134.966V78.1379H142.069V71.0345Z" fill="black"/>
    <path d="M149.172 71.0345H142.069V78.1379H149.172V71.0345Z" fill="black"/>
    <path d="M156.276 71.0345H149.172V78.1379H156.276V71.0345Z" fill="black"/>
    <path d="M163.379 71.0345H156.276V78.1379H163.379V71.0345Z" fill="black"/>
    <path d="M170.483 71.0345H163.379V78.1379H170.483V71.0345Z" fill="black"/>
    <path d="M177.586 71.0345H170.483V78.1379H177.586V71.0345Z" fill="black"/>
    <path d="M184.69 71.0345H177.586V78.1379H184.69V71.0345Z" fill="black"/>
    <path d="M191.793 71.0345H184.69V78.1379H191.793V71.0345Z" fill="black"/>
    <path d="M206 71.0345H198.897V78.1379H206V71.0345Z" fill="black"/>
    <path d="M21.3103 78.1379H14.2069V85.2414H21.3103V78.1379Z" fill="black"/>
    <path d="M28.4138 78.1379H21.3103V85.2414H28.4138V78.1379Z" fill="black"/>
    <path d="M71.0345 78.1379H63.931V85.2414H71.0345V78.1379Z" fill="black"/>
    <path d="M127.862 78.1379H120.759V85.2414H127.862V78.1379Z" fill="black"/>
    <path d="M134.966 78.1379H127.862V85.2414H134.966V78.1379Z" fill="black"/>
    <path d="M142.069 78.1379H134.966V85.2414H142.069V78.1379Z" fill="black"/>
    <path d="M156.276 78.1379H149.172V85.2414H156.276V78.1379Z" fill="black"/>
    <path d="M163.379 78.1379H156.276V85.2414H163.379V78.1379Z" fill="black"/>
    <path d="M191.793 78.1379H184.69V85.2414H191.793V78.1379Z" fill="black"/>
    <path d="M198.897 78.1379H191.793V85.2414H198.897V78.1379Z" fill="black"/>
    <path d="M7.10345 85.2414H0V92.3448H7.10345V85.2414Z" fill="black"/>
    <path d="M14.2069 85.2414H7.10345V92.3448H14.2069V85.2414Z" fill="black"/>
    <path d="M21.3103 85.2414H14.2069V92.3448H21.3103V85.2414Z" fill="black"/>
    <path d="M35.5172 85.2414H28.4138V92.3448H35.5172V85.2414Z" fill="black"/>
    <path d="M49.7241 85.2414H42.6207V92.3448H49.7241V85.2414Z" fill="black"/>
    <path d="M56.8276 85.2414H49.7241V92.3448H56.8276V85.2414Z" fill="black"/>
    <path d="M71.0345 85.2414H63.931V92.3448H71.0345V85.2414Z" fill="black"/>
    <path d="M78.1379 85.2414H71.0345V92.3448H78.1379V85.2414Z" fill="black"/>
    <path d="M92.3448 85.2414H85.2414V92.3448H92.3448V85.2414Z" fill="black"/>
    <path d="M106.552 85.2414H99.4483V92.3448H106.552V85.2414Z" fill="black"/>
    <path d="M120.759 85.2414H113.655V92.3448H120.759V85.2414Z" fill="black"/>
    <path d="M134.966 85.2414H127.862V92.3448H134.966V85.2414Z" fill="black"/>
    <path d="M156.276 85.2414H149.172V92.3448H156.276V85.2414Z" fill="black"/>
    <path d="M163.379 85.2414H156.276V92.3448H163.379V85.2414Z" fill="black"/>
    <path d="M184.69 85.2414H177.586V92.3448H184.69V85.2414Z" fill="black"/>
    <path d="M198.897 85.2414H191.793V92.3448H198.897V85.2414Z" fill="black"/>
    <path d="M206 85.2414H198.897V92.3448H206V85.2414Z" fill="black"/>
    <path d="M7.10345 92.3448H0V99.4483H7.10345V92.3448Z" fill="black"/>
    <path d="M14.2069 92.3448H7.10345V99.4483H14.2069V92.3448Z" fill="black"/>
    <path d="M21.3103 92.3448H14.2069V99.4483H21.3103V92.3448Z" fill="black"/>
    <path d="M71.0345 92.3448H63.931V99.4483H71.0345V92.3448Z" fill="black"/>
    <path d="M78.1379 92.3448H71.0345V99.4483H78.1379V92.3448Z" fill="black"/>
    <path d="M85.2414 92.3448H78.1379V99.4483H85.2414V92.3448Z" fill="black"/>
    <path d="M127.862 92.3448H120.759V99.4483H127.862V92.3448Z" fill="black"/>
    <path d="M134.966 92.3448H127.862V99.4483H134.966V92.3448Z" fill="black"/>
    <path d="M142.069 92.3448H134.966V99.4483H142.069V92.3448Z" fill="black"/>
    <path d="M184.69 92.3448H177.586V99.4483H184.69V92.3448Z" fill="black"/>
    <path d="M206 92.3448H198.897V99.4483H206V92.3448Z" fill="black"/>
    <path d="M7.10345 99.4483H0V106.552H7.10345V99.4483Z" fill="black"/>
    <path d="M14.2069 99.4483H7.10345V106.552H14.2069V99.4483Z" fill="black"/>
    <path d="M28.4138 99.4483H21.3103V106.552H28.4138V99.4483Z" fill="black"/>
    <path d="M49.7241 99.4483H42.6207V106.552H49.7241V99.4483Z" fill="black"/>
    <path d="M56.8276 99.4483H49.7241V106.552H56.8276V99.4483Z" fill="black"/>
    <path d="M71.0345 99.4483H63.931V106.552H71.0345V99.4483Z" fill="black"/>
    <path d="M78.1379 99.4483H71.0345V106.552H78.1379V99.4483Z" fill="black"/>
    <path d="M92.3448 99.4483H85.2414V106.552H92.3448V99.4483Z" fill="black"/>
    <path d="M113.655 99.4483H106.552V106.552H113.655V99.4483Z" fill="black"/>
    <path d="M127.862 99.4483H120.759V106.552H127.862V99.4483Z" fill="black"/>
    <path d="M134.966 99.4483H127.862V106.552H134.966V99.4483Z" fill="black"/>
    <path d="M149.172 99.4483H142.069V106.552H149.172V99.4483Z" fill="black"/>
    <path d="M170.483 99.4483H163.379V106.552H170.483V99.4483Z" fill="black"/>
    <path d="M184.69 99.4483H177.586V106.552H184.69V99.4483Z" fill="black"/>
    <path d="M198.897 99.4483H191.793V106.552H198.897V99.4483Z" fill="black"/>
    <path d="M7.10345 106.552H0V113.655H7.10345V106.552Z" fill="black"/>
    <path d="M14.2069 106.552H7.10345V113.655H14.2069V106.552Z" fill="black"/>
    <path d="M21.3103 106.552H14.2069V113.655H21.3103V106.552Z" fill="black"/>
    <path d="M28.4138 106.552H21.3103V113.655H28.4138V106.552Z" fill="black"/>
    <path d="M35.5172 106.552H28.4138V113.655H35.5172V106.552Z" fill="black"/>
    <path d="M71.0345 106.552H63.931V113.655H71.0345V106.552Z" fill="black"/>
    <path d="M78.1379 106.552H71.0345V113.655H78.1379V106.552Z" fill="black"/>
    <path d="M92.3448 106.552H85.2414V113.655H92.3448V106.552Z" fill="black"/>
    <path d="M106.552 106.552H99.4483V113.655H106.552V106.552Z" fill="black"/>
    <path d="M120.759 106.552H113.655V113.655H120.759V106.552Z" fill="black"/>
    <path d="M134.966 106.552H127.862V113.655H134.966V106.552Z" fill="black"/>
    <path d="M142.069 106.552H134.966V113.655H142.069V106.552Z" fill="black"/>
    <path d="M156.276 106.552H149.172V113.655H156.276V106.552Z" fill="black"/>
    <path d="M163.379 106.552H156.276V113.655H163.379V106.552Z" fill="black"/>
    <path d="M170.483 106.552H163.379V113.655H170.483V106.552Z" fill="black"/>
    <path d="M177.586 106.552H170.483V113.655H177.586V106.552Z" fill="black"/>
    <path d="M191.793 106.552H184.69V113.655H191.793V106.552Z" fill="black"/>
    <path d="M198.897 106.552H191.793V113.655H198.897V106.552Z" fill="black"/>
    <path d="M206 106.552H198.897V113.655H206V106.552Z" fill="black"/>
    <path d="M14.2069 113.655H7.10345V120.759H14.2069V113.655Z" fill="black"/>
    <path d="M35.5172 113.655H28.4138V120.759H35.5172V113.655Z" fill="black"/>
    <path d="M49.7241 113.655H42.6207V120.759H49.7241V113.655Z" fill="black"/>
    <path d="M56.8276 113.655H49.7241V120.759H56.8276V113.655Z" fill="black"/>
    <path d="M78.1379 113.655H71.0345V120.759H78.1379V113.655Z" fill="black"/>
    <path d="M85.2414 113.655H78.1379V120.759H85.2414V113.655Z" fill="black"/>
    <path d="M99.4483 113.655H92.3448V120.759H99.4483V113.655Z" fill="black"/>
    <path d="M113.655 113.655H106.552V120.759H113.655V113.655Z" fill="black"/>
    <path d="M127.862 113.655H120.759V120.759H127.862V113.655Z" fill="black"/>
    <path d="M134.966 113.655H127.862V120.759H134.966V113.655Z" fill="black"/>
    <path d="M149.172 113.655H142.069V120.759H149.172V113.655Z" fill="black"/>
    <path d="M156.276 113.655H149.172V120.759H156.276V113.655Z" fill="black"/>
    <path d="M163.379 113.655H156.276V120.759H163.379V113.655Z" fill="black"/>
    <path d="M170.483 113.655H163.379V120.759H170.483V113.655Z" fill="black"/>
    <path d="M184.69 113.655H177.586V120.759H184.69V113.655Z" fill="black"/>
    <path d="M191.793 113.655H184.69V120.759H191.793V113.655Z" fill="black"/>
    <path d="M206 113.655H198.897V120.759H206V113.655Z" fill="black"/>
    <path d="M7.10345 120.759H0V127.862H7.10345V120.759Z" fill="black"/>
    <path d="M14.2069 120.759H7.10345V127.862H14.2069V120.759Z" fill="black"/>
    <path d="M42.6207 120.759H35.5172V127.862H42.6207V120.759Z" fill="black"/>
    <path d="M63.931 120.759H56.8276V127.862H63.931V120.759Z" fill="black"/>
    <path d="M71.0345 120.759H63.931V127.862H71.0345V120.759Z" fill="black"/>
    <path d="M78.1379 120.759H71.0345V127.862H78.1379V120.759Z" fill="black"/>
    <path d="M92.3448 120.759H85.2414V127.862H92.3448V120.759Z" fill="black"/>
    <path d="M99.4483 120.759H92.3448V127.862H99.4483V120.759Z" fill="black"/>
    <path d="M106.552 120.759H99.4483V127.862H106.552V120.759Z" fill="black"/>
    <path d="M163.379 120.759H156.276V127.862H163.379V120.759Z" fill="black"/>
    <path d="M177.586 120.759H170.483V127.862H177.586V120.759Z" fill="black"/>
    <path d="M191.793 120.759H184.69V127.862H191.793V120.759Z" fill="black"/>
    <path d="M206 120.759H198.897V127.862H206V120.759Z" fill="black"/>
    <path d="M7.10345 127.862H0V134.966H7.10345V127.862Z" fill="black"/>
    <path d="M21.3103 127.862H14.2069V134.966H21.3103V127.862Z" fill="black"/>
    <path d="M42.6207 127.862H35.5172V134.966H42.6207V127.862Z" fill="black"/>
    <path d="M49.7241 127.862H42.6207V134.966H49.7241V127.862Z" fill="black"/>
    <path d="M56.8276 127.862H49.7241V134.966H56.8276V127.862Z" fill="black"/>
    <path d="M71.0345 127.862H63.931V134.966H71.0345V127.862Z" fill="black"/>
    <path d="M78.1379 127.862H71.0345V134.966H78.1379V127.862Z" fill="black"/>
    <path d="M99.4483 127.862H92.3448V134.966H99.4483V127.862Z" fill="black"/>
    <path d="M113.655 127.862H106.552V134.966H113.655V127.862Z" fill="black"/>
    <path d="M134.966 127.862H127.862V134.966H134.966V127.862Z" fill="black"/>
    <path d="M142.069 127.862H134.966V134.966H142.069V127.862Z" fill="black"/>
    <path d="M177.586 127.862H170.483V134.966H177.586V127.862Z" fill="black"/>
    <path d="M28.4138 134.966H21.3103V142.069H28.4138V134.966Z" fill="black"/>
    <path d="M35.5172 134.966H28.4138V142.069H35.5172V134.966Z" fill="black"/>
    <path d="M56.8276 134.966H49.7241V142.069H56.8276V134.966Z" fill="black"/>
    <path d="M85.2414 134.966H78.1379V142.069H85.2414V134.966Z" fill="black"/>
    <path d="M99.4483 134.966H92.3448V142.069H99.4483V134.966Z" fill="black"/>
    <path d="M113.655 134.966H106.552V142.069H113.655V134.966Z" fill="black"/>
    <path d="M149.172 134.966H142.069V142.069H149.172V134.966Z" fill="black"/>
    <path d="M170.483 134.966H163.379V142.069H170.483V134.966Z" fill="black"/>
    <path d="M184.69 134.966H177.586V142.069H184.69V134.966Z" fill="black"/>
    <path d="M191.793 134.966H184.69V142.069H191.793V134.966Z" fill="black"/>
    <path d="M198.897 134.966H191.793V142.069H198.897V134.966Z" fill="black"/>
    <path d="M206 134.966H198.897V142.069H206V134.966Z" fill="black"/>
    <path d="M7.10345 142.069H0V149.172H7.10345V142.069Z" fill="black"/>
    <path d="M35.5172 142.069H28.4138V149.172H35.5172V142.069Z" fill="black"/>
    <path d="M49.7241 142.069H42.6207V149.172H49.7241V142.069Z" fill="black"/>
    <path d="M56.8276 142.069H49.7241V149.172H56.8276V142.069Z" fill="black"/>
    <path d="M71.0345 142.069H63.931V149.172H71.0345V142.069Z" fill="black"/>
    <path d="M92.3448 142.069H85.2414V149.172H92.3448V142.069Z" fill="black"/>
    <path d="M106.552 142.069H99.4483V149.172H106.552V142.069Z" fill="black"/>
    <path d="M127.862 142.069H120.759V149.172H127.862V142.069Z" fill="black"/>
    <path d="M142.069 142.069H134.966V149.172H142.069V142.069Z" fill="black"/>
    <path d="M149.172 142.069H142.069V149.172H149.172V142.069Z" fill="black"/>
    <path d="M156.276 142.069H149.172V149.172H156.276V142.069Z" fill="black"/>
    <path d="M163.379 142.069H156.276V149.172H163.379V142.069Z" fill="black"/>
    <path d="M170.483 142.069H163.379V149.172H170.483V142.069Z" fill="black"/>
    <path d="M177.586 142.069H170.483V149.172H177.586V142.069Z" fill="black"/>
    <path d="M198.897 142.069H191.793V149.172H198.897V142.069Z" fill="black"/>
    <path d="M71.0345 149.172H63.931V156.276H71.0345V149.172Z" fill="black"/>
    <path d="M78.1379 149.172H71.0345V156.276H78.1379V149.172Z" fill="black"/>
    <path d="M99.4483 149.172H92.3448V156.276H99.4483V149.172Z" fill="black"/>
    <path d="M113.655 149.172H106.552V156.276H113.655V149.172Z" fill="black"/>
    <path d="M134.966 149.172H127.862V156.276H134.966V149.172Z" fill="black"/>
    <path d="M149.172 149.172H142.069V156.276H149.172V149.172Z" fill="black"/>
    <path d="M177.586 149.172H170.483V156.276H177.586V149.172Z" fill="black"/>
    <path d="M191.793 149.172H184.69V156.276H191.793V149.172Z" fill="black"/>
    <path d="M198.897 149.172H191.793V156.276H198.897V149.172Z" fill="black"/>
    <path d="M7.10345 156.276H0V163.379H7.10345V156.276Z" fill="black"/>
    <path d="M14.2069 156.276H7.10345V163.379H14.2069V156.276Z" fill="black"/>
    <path d="M21.3103 156.276H14.2069V163.379H21.3103V156.276Z" fill="black"/>
    <path d="M28.4138 156.276H21.3103V163.379H28.4138V156.276Z" fill="black"/>
    <path d="M35.5172 156.276H28.4138V163.379H35.5172V156.276Z" fill="black"/>
    <path d="M42.6207 156.276H35.5172V163.379H42.6207V156.276Z" fill="black"/>
    <path d="M49.7241 156.276H42.6207V163.379H49.7241V156.276Z" fill="black"/>
    <path d="M63.931 156.276H56.8276V163.379H63.931V156.276Z" fill="black"/>
    <path d="M78.1379 156.276H71.0345V163.379H78.1379V156.276Z" fill="black"/>
    <path d="M85.2414 156.276H78.1379V163.379H85.2414V156.276Z" fill="black"/>
    <path d="M106.552 156.276H99.4483V163.379H106.552V156.276Z" fill="black"/>
    <path d="M113.655 156.276H106.552V163.379H113.655V156.276Z" fill="black"/>
    <path d="M127.862 156.276H120.759V163.379H127.862V156.276Z" fill="black"/>
    <path d="M134.966 156.276H127.862V163.379H134.966V156.276Z" fill="black"/>
    <path d="M149.172 156.276H142.069V163.379H149.172V156.276Z" fill="black"/>
    <path d="M163.379 156.276H156.276V163.379H163.379V156.276Z" fill="black"/>
    <path d="M177.586 156.276H170.483V163.379H177.586V156.276Z" fill="black"/>
    <path d="M7.10345 163.379H0V170.483H7.10345V163.379Z" fill="black"/>
    <path d="M49.7241 163.379H42.6207V170.483H49.7241V163.379Z" fill="black"/>
    <path d="M63.931 163.379H56.8276V170.483H63.931V163.379Z" fill="black"/>
    <path d="M71.0345 163.379H63.931V170.483H71.0345V163.379Z" fill="black"/>
    <path d="M78.1379 163.379H71.0345V170.483H78.1379V163.379Z" fill="black"/>
    <path d="M92.3448 163.379H85.2414V170.483H92.3448V163.379Z" fill="black"/>
    <path d="M99.4483 163.379H92.3448V170.483H99.4483V163.379Z" fill="black"/>
    <path d="M106.552 163.379H99.4483V170.483H106.552V163.379Z" fill="black"/>
    <path d="M127.862 163.379H120.759V170.483H127.862V163.379Z" fill="black"/>
    <path d="M142.069 163.379H134.966V170.483H142.069V163.379Z" fill="black"/>
    <path d="M149.172 163.379H142.069V170.483H149.172V163.379Z" fill="black"/>
    <path d="M177.586 163.379H170.483V170.483H177.586V163.379Z" fill="black"/>
    <path d="M191.793 163.379H184.69V170.483H191.793V163.379Z" fill="black"/>
    <path d="M198.897 163.379H191.793V170.483H198.897V163.379Z" fill="black"/>
    <path d="M206 163.379H198.897V170.483H206V163.379Z" fill="black"/>
    <path d="M7.10345 170.483H0V177.586H7.10345V170.483Z" fill="black"/>
    <path d="M21.3103 170.483H14.2069V177.586H21.3103V170.483Z" fill="black"/>
    <path d="M28.4138 170.483H21.3103V177.586H28.4138V170.483Z" fill="black"/>
    <path d="M35.5172 170.483H28.4138V177.586H35.5172V170.483Z" fill="black"/>
    <path d="M49.7241 170.483H42.6207V177.586H49.7241V170.483Z" fill="black"/>
    <path d="M63.931 170.483H56.8276V177.586H63.931V170.483Z" fill="black"/>
    <path d="M71.0345 170.483H63.931V177.586H71.0345V170.483Z" fill="black"/>
    <path d="M78.1379 170.483H71.0345V177.586H78.1379V170.483Z" fill="black"/>
    <path d="M92.3448 170.483H85.2414V177.586H92.3448V170.483Z" fill="black"/>
    <path d="M99.4483 170.483H92.3448V177.586H99.4483V170.483Z" fill="black"/>
    <path d="M113.655 170.483H106.552V177.586H113.655V170.483Z" fill="black"/>
    <path d="M127.862 170.483H120.759V177.586H127.862V170.483Z" fill="black"/>
    <path d="M142.069 170.483H134.966V177.586H142.069V170.483Z" fill="black"/>
    <path d="M149.172 170.483H142.069V177.586H149.172V170.483Z" fill="black"/>
    <path d="M156.276 170.483H149.172V177.586H156.276V170.483Z" fill="black"/>
    <path d="M163.379 170.483H156.276V177.586H163.379V170.483Z" fill="black"/>
    <path d="M170.483 170.483H163.379V177.586H170.483V170.483Z" fill="black"/>
    <path d="M177.586 170.483H170.483V177.586H177.586V170.483Z" fill="black"/>
    <path d="M184.69 170.483H177.586V177.586H184.69V170.483Z" fill="black"/>
    <path d="M191.793 170.483H184.69V177.586H191.793V170.483Z" fill="black"/>
    <path d="M206 170.483H198.897V177.586H206V170.483Z" fill="black"/>
    <path d="M7.10345 177.586H0V184.69H7.10345V177.586Z" fill="black"/>
    <path d="M21.3103 177.586H14.2069V184.69H21.3103V177.586Z" fill="black"/>
    <path d="M28.4138 177.586H21.3103V184.69H28.4138V177.586Z" fill="black"/>
    <path d="M35.5172 177.586H28.4138V184.69H35.5172V177.586Z" fill="black"/>
    <path d="M49.7241 177.586H42.6207V184.69H49.7241V177.586Z" fill="black"/>
    <path d="M63.931 177.586H56.8276V184.69H63.931V177.586Z" fill="black"/>
    <path d="M71.0345 177.586H63.931V184.69H71.0345V177.586Z" fill="black"/>
    <path d="M85.2414 177.586H78.1379V184.69H85.2414V177.586Z" fill="black"/>
    <path d="M106.552 177.586H99.4483V184.69H106.552V177.586Z" fill="black"/>
    <path d="M113.655 177.586H106.552V184.69H113.655V177.586Z" fill="black"/>
    <path d="M127.862 177.586H120.759V184.69H127.862V177.586Z" fill="black"/>
    <path d="M134.966 177.586H127.862V184.69H134.966V177.586Z" fill="black"/>
    <path d="M142.069 177.586H134.966V184.69H142.069V177.586Z" fill="black"/>
    <path d="M149.172 177.586H142.069V184.69H149.172V177.586Z" fill="black"/>
    <path d="M163.379 177.586H156.276V184.69H163.379V177.586Z" fill="black"/>
    <path d="M170.483 177.586H163.379V184.69H170.483V177.586Z" fill="black"/>
    <path d="M184.69 177.586H177.586V184.69H184.69V177.586Z" fill="black"/>
    <path d="M198.897 177.586H191.793V184.69H198.897V177.586Z" fill="black"/>
    <path d="M206 177.586H198.897V184.69H206V177.586Z" fill="black"/>
    <path d="M7.10345 184.69H0V191.793H7.10345V184.69Z" fill="black"/>
    <path d="M21.3103 184.69H14.2069V191.793H21.3103V184.69Z" fill="black"/>
    <path d="M28.4138 184.69H21.3103V191.793H28.4138V184.69Z" fill="black"/>
    <path d="M35.5172 184.69H28.4138V191.793H35.5172V184.69Z" fill="black"/>
    <path d="M49.7241 184.69H42.6207V191.793H49.7241V184.69Z" fill="black"/>
    <path d="M63.931 184.69H56.8276V191.793H63.931V184.69Z" fill="black"/>
    <path d="M78.1379 184.69H71.0345V191.793H78.1379V184.69Z" fill="black"/>
    <path d="M92.3448 184.69H85.2414V191.793H92.3448V184.69Z" fill="black"/>
    <path d="M106.552 184.69H99.4483V191.793H106.552V184.69Z" fill="black"/>
    <path d="M149.172 184.69H142.069V191.793H149.172V184.69Z" fill="black"/>
    <path d="M7.10345 191.793H0V198.897H7.10345V191.793Z" fill="black"/>
    <path d="M49.7241 191.793H42.6207V198.897H49.7241V191.793Z" fill="black"/>
    <path d="M78.1379 191.793H71.0345V198.897H78.1379V191.793Z" fill="black"/>
    <path d="M92.3448 191.793H85.2414V198.897H92.3448V191.793Z" fill="black"/>
    <path d="M99.4483 191.793H92.3448V198.897H99.4483V191.793Z" fill="black"/>
    <path d="M113.655 191.793H106.552V198.897H113.655V191.793Z" fill="black"/>
    <path d="M120.759 191.793H113.655V198.897H120.759V191.793Z" fill="black"/>
    <path d="M142.069 191.793H134.966V198.897H142.069V191.793Z" fill="black"/>
    <path d="M170.483 191.793H163.379V198.897H170.483V191.793Z" fill="black"/>
    <path d="M177.586 191.793H170.483V198.897H177.586V191.793Z" fill="black"/>
    <path d="M184.69 191.793H177.586V198.897H184.69V191.793Z" fill="black"/>
    <path d="M191.793 191.793H184.69V198.897H191.793V191.793Z" fill="black"/>
    <path d="M198.897 191.793H191.793V198.897H198.897V191.793Z" fill="black"/>
    <path d="M7.10345 198.897H0V206H7.10345V198.897Z" fill="black"/>
    <path d="M14.2069 198.897H7.10345V206H14.2069V198.897Z" fill="black"/>
    <path d="M21.3103 198.897H14.2069V206H21.3103V198.897Z" fill="black"/>
    <path d="M28.4138 198.897H21.3103V206H28.4138V198.897Z" fill="black"/>
    <path d="M35.5172 198.897H28.4138V206H35.5172V198.897Z" fill="black"/>
    <path d="M42.6207 198.897H35.5172V206H42.6207V198.897Z" fill="black"/>
    <path d="M49.7241 198.897H42.6207V206H49.7241V198.897Z" fill="black"/>
    <path d="M71.0345 198.897H63.931V206H71.0345V198.897Z" fill="black"/>
    <path d="M85.2414 198.897H78.1379V206H85.2414V198.897Z" fill="black"/>
    <path d="M92.3448 198.897H85.2414V206H92.3448V198.897Z" fill="black"/>
    <path d="M99.4483 198.897H92.3448V206H99.4483V198.897Z" fill="black"/>
    <path d="M170.483 198.897H163.379V206H170.483V198.897Z" fill="black"/>
    <path d="M184.69 198.897H177.586V206H184.69V198.897Z" fill="black"/>
</svg>
