<svg xmlns="http://www.w3.org/2000/svg" display="none">

    <symbol id="close" viewBox="0 0 24 24">
        <path d="M18 6L6 18" stroke-width="1.5" stroke-linecap="round" stroke-linejoin="round"/>
        <path d="M6 6L18 18" stroke-width="1.5" stroke-linecap="round" stroke-linejoin="round"/>
    </symbol>

    <symbol id="arrow-right" viewBox="0 0 8 12">
        <path d="M1.5 11L6.5 6L1.5 1" stroke-width="1.5" stroke-linecap="round" stroke-linejoin="round"/>
    </symbol>

    <symbol id="arrow-left" viewBox="0 0 8 12">
        <path d="M6.5 1L1.5 6L6.5 11" stroke-width="1.5" stroke-linecap="round" stroke-linejoin="round"/>
    </symbol>

    <symbol id="view" viewBox="0 0 20 20">
        <path d="M0.833008 10C0.833008 10 4.16634 3.33334 9.99967 3.33334C15.833 3.33334 19.1663 10 19.1663 10C19.1663 10 15.833 16.6667 9.99967 16.6667C4.16634 16.6667 0.833008 10 0.833008 10Z"
              stroke-width="1.5" stroke-linecap="round" stroke-linejoin="round"/>
        <path d="M10 12.5C11.3807 12.5 12.5 11.3807 12.5 10C12.5 8.61929 11.3807 7.5 10 7.5C8.61929 7.5 7.5 8.61929 7.5 10C7.5 11.3807 8.61929 12.5 10 12.5Z"
              stroke-width="1.5" stroke-linecap="round" stroke-linejoin="round"/>
    </symbol>

    <symbol id="view-hide" viewBox="0 0 20 20">
        <g>
            <path d="M14.9497 14.95C13.5252 16.0358 11.7906 16.6374 9.99967 16.6667C4.16634 16.6667 0.833008 10 0.833008 10C1.86958 8.06825 3.30729 6.38051 5.04967 5.05M8.24967 3.53333C8.82328 3.39907 9.41056 3.33195 9.99967 3.33333C15.833 3.33333 19.1663 10 19.1663 10C18.6605 10.9463 18.0572 11.8373 17.3663 12.6583M11.7663 11.7667C11.5375 12.0123 11.2615 12.2093 10.9548 12.3459C10.6481 12.4826 10.3171 12.556 9.98142 12.562C9.64574 12.5679 9.31231 12.5061 9.00102 12.3804C8.68972 12.2547 8.40694 12.0675 8.16955 11.8301C7.93215 11.5927 7.745 11.31 7.61927 10.9987C7.49353 10.6874 7.43178 10.3539 7.4377 10.0183C7.44363 9.68258 7.5171 9.35154 7.65374 9.04487C7.79038 8.73821 7.98739 8.46221 8.23301 8.23333"
                  stroke-width="1.5" stroke-linecap="round" stroke-linejoin="round"/>
            <path d="M0.833008 0.833328L19.1663 19.1667" stroke-width="1.5" stroke-linecap="round"
                  stroke-linejoin="round"/>
        </g>
        <defs>
            <clipPath>
                <rect width="20" height="20" fill="white"/>
            </clipPath>
        </defs>
    </symbol>

    <symbol id="search" viewBox="0 0 20 20">
        <path d="M9.16667 15.8333C12.8486 15.8333 15.8333 12.8486 15.8333 9.16667C15.8333 5.48477 12.8486 2.5 9.16667 2.5C5.48477 2.5 2.5 5.48477 2.5 9.16667C2.5 12.8486 5.48477 15.8333 9.16667 15.8333Z"
              stroke-width="1.5" stroke-linecap="round" stroke-linejoin="round"/>
        <path d="M17.5 17.5L13.875 13.875" stroke-width="1.5" stroke-linecap="round"
              stroke-linejoin="round"/>
    </symbol>

    <symbol id="loader" viewBox="0 0 20 20">
        <path d="M0.833252 3.3335V8.3335H5.83325" stroke-width="1.5" stroke-linecap="round"
              stroke-linejoin="round"/>
        <path d="M19.1667 16.6665V11.6665H14.1667" stroke-width="1.5" stroke-linecap="round"
              stroke-linejoin="round"/>
        <path d="M17.0749 7.49998C16.6523 6.30564 15.934 5.23782 14.987 4.39616C14.0401 3.55451 12.8954 2.96645 11.6597 2.68686C10.424 2.40727 9.13762 2.44527 7.92059 2.79729C6.70356 3.14932 5.59554 3.80391 4.69992 4.69998L0.833252 8.33331M19.1666 11.6666L15.2999 15.3C14.4043 16.1961 13.2963 16.8506 12.0792 17.2027C10.8622 17.5547 9.57584 17.5927 8.34016 17.3131C7.10447 17.0335 5.95975 16.4455 5.01281 15.6038C4.06586 14.7621 3.34756 13.6943 2.92492 12.5"
              stroke-width="1.5" stroke-linecap="round" stroke-linejoin="round"/>
    </symbol>


    <symbol id="info" viewBox="0 0 20 20">
        <g>
            <path d="M10.0001 18.3334C14.6025 18.3334 18.3334 14.6024 18.3334 10C18.3334 5.39765 14.6025 1.66669 10.0001 1.66669C5.39771 1.66669 1.66675 5.39765 1.66675 10C1.66675 14.6024 5.39771 18.3334 10.0001 18.3334Z"
                  stroke-width="1.5" stroke-linecap="round" stroke-linejoin="round"/>
            <path d="M10 13.3333V10" stroke-width="1.5" stroke-linecap="round" stroke-linejoin="round"/>
            <path d="M10 6.66669H10.0088" stroke-width="1.5" stroke-linecap="round"
                  stroke-linejoin="round"/>
        </g>
        <defs>
            <clipPath id="clip0_284_668">
                <rect width="20" height="20" fill="white"/>
            </clipPath>
        </defs>
    </symbol>


    <symbol id="arrow-top" viewBox="0 0 16 16">
        <path d="M8 12.6667V3.33333" stroke-width="1.5" stroke-linecap="round"
              stroke-linejoin="round"/>
        <path d="M12.6668 8L8.00016 3.33333L3.3335 8" stroke-width="1.5" stroke-linecap="round"
              stroke-linejoin="round"/>
    </symbol>

    <symbol id="arrow-bottom" viewBox="0 0 16 16">
        <path d="M8 3.33325V12.6666" stroke-width="1.5" stroke-linecap="round"
              stroke-linejoin="round"/>
        <path d="M12.6668 8L8.00016 12.6667L3.3335 8" stroke-width="1.5" stroke-linecap="round"
              stroke-linejoin="round"/>
    </symbol>


</svg>