<svg width="32" height="32" viewBox="0 0 32 32" fill="none" xmlns="http://www.w3.org/2000/svg">
    <rect width="32" height="32" rx="16" fill="#8B3FFD"/>
    <path d="M18.3998 9.20001C14.3898 9.20001 11.2 12.4355 11.2 16.4C11.2 20.4101 14.4353 23.6 18.3998 23.6C22.3642 23.6 25.5995 20.3645 25.5995 16.4C25.6451 12.4355 22.3642 9.20001 18.3998 9.20001ZM18.3998 19.0886C16.9416 19.0886 15.7112 17.8583 15.7112 16.4C15.7112 14.9418 16.9416 13.7114 18.3998 13.7114C19.8579 13.7114 21.0883 14.9418 21.0883 16.4C21.0883 17.8583 19.9035 19.0886 18.3998 19.0886Z" fill="white"/>
    <path d="M11.2 10.8V22H8.72557L5.60001 10.8H11.2Z" fill="white"/>
</svg>
